<svg xmlns="http://www.w3.org/2000/svg" version="1.1" xmlns:xlink="http://www.w3.org/1999/xlink" xmlns:svgjs="http://svgjs.com/svgjs" width="100%" height="72"><svg version="1.1" id="SvgjsSvg1000" xmlns="http://www.w3.org/2000/svg" xmlns:xlink="http://www.w3.org/1999/xlink" x="0px" y="0px" width="100%" viewBox="0 0 1080 1080" enable-background="new 0 0 72 72" xml:space="preserve">
<path fill="none" opacity="1.000000" stroke="none" d="
M581.000000,0.999994 
	C747.600159,1.000000 914.200378,1.000000 1081.000000,1.000000 
	C1081.000000,184.693481 1081.000000,368.387024 1080.595703,552.478027 
	C1079.794434,551.525696 1079.175903,550.198486 1079.034912,548.822388 
	C1077.601807,534.836975 1077.334961,520.628784 1074.627563,506.899933 
	C1069.959351,483.228821 1064.366333,459.698608 1058.104248,436.393402 
	C1049.521729,404.453033 1036.536987,374.164703 1021.411560,344.767456 
	C1008.797546,320.251160 994.043274,297.101990 977.895386,274.791626 
	C960.773621,251.135712 942.069824,228.761185 921.419373,208.181992 
	C908.122986,194.931564 893.866089,182.508713 879.110474,170.895538 
	C863.004456,158.219513 846.277771,146.198608 829.006592,135.168411 
	C804.651855,119.614319 779.003296,106.234482 752.253113,95.206085 
	C735.856873,88.446350 719.324402,81.880440 702.474365,76.389740 
	C676.670288,67.981331 650.351135,61.238525 623.443237,57.392757 
	C604.958313,54.750820 586.376892,52.161385 567.756165,51.267838 
	C549.363159,50.385220 530.835815,51.119778 512.424377,52.156040 
	C495.927490,53.084538 479.373505,54.583145 463.090424,57.301952 
	C445.019165,60.319332 427.149323,64.688301 409.329163,69.032379 
	C376.859528,76.947594 345.820801,88.957115 315.670654,103.244148 
	C285.655426,117.467216 256.879913,133.861313 229.747849,153.104645 
	C208.657990,168.062561 188.854446,184.563904 170.206696,202.423874 
	C160.974548,211.266006 152.239014,220.644470 143.555527,230.036148 
	C136.251785,237.935547 128.909485,245.866760 122.350548,254.374649 
	C102.823471,279.704102 84.135979,305.599762 68.931091,333.888092 
	C55.711731,358.482452 44.130627,383.754486 34.861633,410.083801 
	C24.671398,439.029938 16.329538,468.515808 11.360893,498.799438 
	C8.176568,518.207703 5.375756,537.794983 4.339824,557.404358 
	C3.450441,574.239624 4.307730,591.333984 6.213227,608.106873 
	C8.465773,627.934692 12.282488,647.617249 16.132597,667.223022 
	C20.898748,691.493652 29.112375,714.779663 37.842884,737.874695 
	C45.895157,759.175598 56.232666,779.354736 66.987892,799.400085 
	C77.271759,818.566895 88.393814,837.163513 100.945671,854.889099 
	C117.233162,877.890198 135.294846,899.467712 155.125854,919.484192 
	C165.635895,930.092529 176.611572,940.276611 187.836365,950.128967 
	C198.137848,959.170959 208.810349,967.835571 219.748413,976.098511 
	C252.058319,1000.506409 286.874725,1020.799622 324.011963,1036.851196 
	C353.054749,1049.404297 382.740204,1060.220947 413.749847,1067.278076 
	C437.188751,1072.612427 460.666168,1077.251587 484.653351,1079.118652 
	C485.479370,1079.182983 486.219696,1080.348022 487.000000,1081.000000 
	C325.032806,1081.000000 163.065582,1081.000000 1.049187,1081.000000 
	C1.049187,721.105652 1.049187,361.211334 1.049187,1.000000 
	C168.693405,1.000000 336.386993,1.000000 504.800995,1.383770 
	C500.911316,2.511612 496.317902,3.387799 491.687592,3.971529 
	C482.766296,5.096221 473.778381,5.763102 464.901489,7.152679 
	C451.906128,9.186948 438.846222,11.107044 426.063660,14.131584 
	C407.476898,18.529476 388.930054,23.284849 370.711945,28.991552 
	C356.491425,33.446037 342.521027,38.970036 328.935791,45.115875 
	C310.103455,53.635464 291.233704,62.300739 273.297363,72.514633 
	C250.962616,85.233185 229.309723,99.227348 209.529282,115.831108 
	C197.106125,126.259163 184.269211,136.251007 172.438217,147.315643 
	C149.760727,168.524185 128.480438,191.143509 110.302765,216.382996 
	C98.040771,233.408600 85.709572,250.550507 75.382729,268.759552 
	C63.748123,289.274536 54.149136,310.960785 44.041691,332.316010 
	C40.458275,339.887146 37.982731,347.982635 34.663391,356.016296 
	C31.848717,363.775024 29.372078,371.356140 26.558178,379.110107 
	C25.036892,383.395996 23.852867,387.509064 22.668844,391.622162 
	C23.400885,391.797607 24.132923,391.973022 24.864964,392.148468 
	C25.905695,387.801270 26.946424,383.454041 28.309208,378.926697 
	C30.105799,375.771210 31.792480,372.879395 33.004791,369.800781 
	C34.791019,365.264801 36.239170,360.595703 37.910461,355.624084 
	C39.698120,352.190063 41.406639,349.115234 43.439243,345.912109 
	C47.207897,338.863190 50.652470,331.942566 54.060883,325.022461 
	C54.024727,325.022980 54.027336,325.095245 54.301453,325.012024 
	C54.660309,324.596497 54.745049,324.264221 54.914883,323.556305 
	C57.923141,317.741119 60.846310,312.301605 64.132004,306.927490 
	C67.929817,302.554352 71.688339,298.322449 74.700150,293.613007 
	C77.199684,289.704559 78.820023,285.233826 80.981201,280.693115 
	C84.506912,275.896362 87.881264,271.418701 91.595490,266.953979 
	C93.269005,265.804810 94.800735,264.804657 95.904747,263.454681 
	C104.285217,253.207321 112.724007,243.001556 120.831131,232.539886 
	C123.848610,228.646011 129.112762,225.723129 128.114853,219.238312 
	C130.432480,217.377106 132.590302,215.870392 134.437408,214.048645 
	C145.621231,203.018387 156.734085,191.916168 168.242172,180.912231 
	C169.653595,180.578506 170.877869,180.398285 171.705612,179.728256 
	C182.833542,170.720490 193.616516,161.257629 205.065903,152.683273 
	C219.380646,141.963043 234.188477,131.896805 248.872360,121.675980 
	C255.164673,117.296158 261.681183,113.238403 268.058533,109.031860 
	C268.021271,109.029419 268.018036,109.104088 268.256439,109.040588 
	C268.827271,108.815948 268.992004,108.550713 269.303589,108.018181 
	C275.820129,104.509010 282.022156,101.163063 288.582428,97.865952 
	C293.781342,95.914749 298.762634,94.194481 303.428955,91.847824 
	C310.100952,88.492531 316.542511,84.679016 323.049133,81.052155 
	C323.015839,81.043114 323.011963,81.112038 323.332947,81.063828 
	C324.131927,80.693016 324.609924,80.370407 325.050781,80.042206 
	C325.013672,80.036613 325.004211,80.111107 325.334320,80.066109 
	C326.140533,79.694878 326.616638,79.368637 327.053192,79.038963 
	C327.013641,79.035530 327.008453,79.114777 327.245361,79.033569 
	C327.808472,78.781235 327.981049,78.511787 328.389709,78.088547 
	C333.652924,76.280914 338.526398,74.528770 343.573151,72.696350 
	C343.948792,72.420403 344.012604,72.186974 343.907745,71.967026 
	C343.877716,72.018242 343.977173,72.083130 344.388367,72.029358 
	C355.327606,68.608902 365.859955,65.255424 376.364929,61.818188 
	C376.715759,61.703392 376.789398,60.741379 377.390320,60.099854 
	C378.895111,59.796448 380.018188,59.627361 381.105957,59.329353 
	C393.885162,55.828407 406.659027,52.308132 419.602234,48.703850 
	C419.974731,48.418770 420.034424,48.185757 419.916351,47.968506 
	C419.883453,48.021301 419.986023,48.091705 420.402588,48.042068 
	C424.587219,47.338032 428.374512,46.777336 432.118927,46.007835 
	C438.131775,44.772160 444.116241,43.398396 450.539124,42.049946 
	C461.532379,40.575607 472.112457,39.223385 482.660217,37.653564 
	C487.571167,36.922657 492.419312,35.769634 497.592041,35.081017 
	C500.280579,35.582596 502.935303,35.233250 505.005005,36.172703 
	C508.250793,37.646019 510.180573,36.606026 512.414673,34.089027 
	C516.206665,33.714375 519.577271,33.404152 523.114075,33.438370 
	C525.892944,34.538807 528.490356,35.887650 531.120911,35.955891 
	C550.159302,36.449799 569.208557,36.539986 588.245178,37.080730 
	C594.906982,37.269962 601.596008,38.042103 608.179504,39.117916 
	C620.905273,41.197460 633.631348,43.372105 646.234985,46.077347 
	C661.767212,49.411167 677.291687,52.901299 692.600769,57.117996 
	C706.164368,60.853920 719.416382,65.715515 732.844421,69.958359 
	C734.119995,70.361412 735.670105,69.895668 737.458862,69.920212 
	C742.202576,71.710823 746.580200,73.414497 750.981201,75.492439 
	C756.646729,78.270576 762.288879,80.674454 768.097412,83.408249 
	C769.485168,84.156189 770.783386,84.426254 771.916443,85.014442 
	C788.579041,93.664696 805.219543,102.357300 822.016907,111.364365 
	C930.441956,176.043793 1007.711670,267.376892 1056.981567,383.074402 
	C1057.561523,382.739105 1058.141479,382.403809 1058.721436,382.068542 
	C1055.091187,372.085419 1051.460938,362.102325 1047.898438,351.736267 
	C1047.296143,349.537354 1046.704834,347.687592 1045.943481,345.910706 
	C1040.005493,332.051514 1034.753784,317.838165 1027.895996,304.448212 
	C1018.931641,286.944855 1009.063721,269.870483 998.912781,253.016113 
	C981.455322,224.029892 960.650757,197.443207 937.280945,173.071350 
	C921.731628,156.855331 905.094360,141.591263 888.085876,126.894211 
	C874.120300,114.826530 859.585999,103.129234 844.049805,93.237183 
	C823.012329,79.842445 801.192627,67.505592 778.925354,56.266331 
	C760.559570,46.996284 741.242004,39.497295 722.010132,32.085560 
	C695.895264,22.021206 668.726562,15.410368 641.270996,10.218505 
	C628.429504,7.790178 615.342957,6.636564 602.352600,5.025147 
	C595.683716,4.197896 588.977478,3.672828 582.304565,2.873878 
	C581.802124,2.813718 581.431763,1.650466 581.000000,0.999994 
z"></path>
<path fill="#384146" opacity="1.000000" stroke="none" d="
M487.468658,1081.000000 
	C486.219696,1080.348022 485.479370,1079.182983 484.653351,1079.118652 
	C460.666168,1077.251587 437.188751,1072.612427 413.749847,1067.278076 
	C382.740204,1060.220947 353.054749,1049.404297 324.011963,1036.851196 
	C286.874725,1020.799622 252.058319,1000.506409 219.748413,976.098511 
	C208.810349,967.835571 198.137848,959.170959 187.836365,950.128967 
	C176.611572,940.276611 165.635895,930.092529 155.125854,919.484192 
	C135.294846,899.467712 117.233162,877.890198 100.945671,854.889099 
	C88.393814,837.163513 77.271759,818.566895 66.987892,799.400085 
	C56.232666,779.354736 45.895157,759.175598 37.842884,737.874695 
	C29.112375,714.779663 20.898748,691.493652 16.132597,667.223022 
	C12.282488,647.617249 8.465773,627.934692 6.213227,608.106873 
	C4.307730,591.333984 3.450441,574.239624 4.339824,557.404358 
	C5.375756,537.794983 8.176568,518.207703 11.360893,498.799438 
	C16.329538,468.515808 24.671398,439.029938 34.861633,410.083801 
	C44.130627,383.754486 55.711731,358.482452 68.931091,333.888092 
	C84.135979,305.599762 102.823471,279.704102 122.350548,254.374649 
	C128.909485,245.866760 136.251785,237.935547 143.555527,230.036148 
	C152.239014,220.644470 160.974548,211.266006 170.206696,202.423874 
	C188.854446,184.563904 208.657990,168.062561 229.747849,153.104645 
	C256.879913,133.861313 285.655426,117.467216 315.670654,103.244148 
	C345.820801,88.957115 376.859528,76.947594 409.329163,69.032379 
	C427.149323,64.688301 445.019165,60.319332 463.090424,57.301952 
	C479.373505,54.583145 495.927490,53.084538 512.424377,52.156040 
	C530.835815,51.119778 549.363159,50.385220 567.756165,51.267838 
	C586.376892,52.161385 604.958313,54.750820 623.443237,57.392757 
	C650.351135,61.238525 676.670288,67.981331 702.474365,76.389740 
	C719.324402,81.880440 735.856873,88.446350 752.253113,95.206085 
	C779.003296,106.234482 804.651855,119.614319 829.006592,135.168411 
	C846.277771,146.198608 863.004456,158.219513 879.110474,170.895538 
	C893.866089,182.508713 908.122986,194.931564 921.419373,208.181992 
	C942.069824,228.761185 960.773621,251.135712 977.895386,274.791626 
	C994.043274,297.101990 1008.797546,320.251160 1021.411560,344.767456 
	C1036.536987,374.164703 1049.521729,404.453033 1058.104248,436.393402 
	C1064.366333,459.698608 1069.959351,483.228821 1074.627563,506.899933 
	C1077.334961,520.628784 1077.601807,534.836975 1079.034912,548.822388 
	C1079.175903,550.198486 1079.794434,551.525696 1080.595703,552.937744 
	C1081.000000,568.020874 1081.000000,583.041809 1080.595459,598.572937 
	C1079.767822,601.931763 1079.427002,604.795410 1078.908325,607.626526 
	C1074.890747,629.553772 1071.626831,651.656555 1066.618042,673.356201 
	C1058.506592,708.497925 1045.723755,742.109924 1030.177612,774.640564 
	C1016.943115,802.334106 1001.505005,828.738159 983.795654,853.839661 
	C968.595703,875.384277 951.911133,895.729553 933.603699,914.616699 
	C920.340942,928.299438 906.210388,941.231018 891.675964,953.565613 
	C877.206360,965.845276 862.158142,977.542908 846.632080,988.454712 
	C822.323425,1005.539001 796.423645,1019.897766 769.426331,1032.502563 
	C739.410889,1046.516479 708.425110,1057.325684 676.474609,1065.804321 
	C653.362915,1071.937256 629.888062,1075.551636 606.183594,1078.135010 
	C602.726074,1078.511719 599.391479,1080.016968 596.000000,1081.000000 
	C559.979126,1081.000000 523.958191,1081.000000 487.468658,1081.000000 
M55.078308,555.682983 
	C54.739059,562.669617 54.199142,569.653198 54.095322,576.643311 
	C53.646980,606.829834 56.158375,636.790100 60.845856,666.610718 
	C68.212051,713.472656 82.497765,758.156738 103.732956,800.480103 
	C146.136429,884.993408 207.978806,951.760742 288.894623,1000.715759 
	C360.634369,1044.119141 438.198761,1068.998413 522.165710,1072.790161 
	C569.148010,1074.911865 615.504395,1069.948608 660.953003,1057.896240 
	C764.601135,1030.410156 851.269165,975.771912 919.863342,893.306702 
	C989.391846,809.718384 1024.781982,712.769287 1029.778198,604.524231 
	C1031.736084,562.102966 1027.881470,520.022705 1017.677795,478.813660 
	C983.893250,342.369263 906.791992,237.932129 784.815063,167.514740 
	C713.466003,126.324837 636.639282,103.187637 553.906494,101.117912 
	C517.169373,100.198860 480.747253,103.370613 444.875031,111.231018 
	C362.887665,129.196259 289.743103,165.650986 225.901443,219.868790 
	C154.576050,280.442169 104.019524,355.323853 76.095718,445.010925 
	C64.955635,480.791168 58.090004,517.397400 55.078308,555.682983 
z"></path>
<path fill="none" opacity="1.000000" stroke="none" d="
M596.468628,1081.000000 
	C599.391479,1080.016968 602.726074,1078.511719 606.183594,1078.135010 
	C629.888062,1075.551636 653.362915,1071.937256 676.474609,1065.804321 
	C708.425110,1057.325684 739.410889,1046.516479 769.426331,1032.502563 
	C796.423645,1019.897766 822.323425,1005.539001 846.632080,988.454712 
	C862.158142,977.542908 877.206360,965.845276 891.675964,953.565613 
	C906.210388,941.231018 920.340942,928.299438 933.603699,914.616699 
	C951.911133,895.729553 968.595703,875.384277 983.795654,853.839661 
	C1001.505005,828.738159 1016.943115,802.334106 1030.177612,774.640564 
	C1045.723755,742.109924 1058.506592,708.497925 1066.618042,673.356201 
	C1071.626831,651.656555 1074.890747,629.553772 1078.908325,607.626526 
	C1079.427002,604.795410 1079.767822,601.931763 1080.595459,599.041626 
	C1081.000000,759.593933 1081.000000,920.187927 1081.000000,1081.000000 
	C919.645813,1081.000000 758.291565,1081.000000 596.468628,1081.000000 
z"></path>
<path fill="#F58233" opacity="1.000000" stroke="none" d="
M91.255615,266.941010 
	C87.881264,271.418701 84.506912,275.896362 80.673538,280.810883 
	C74.732834,289.785828 69.251160,298.323944 63.769482,306.862061 
	C60.846310,312.301605 57.923141,317.741119 54.647141,323.653748 
	C54.205318,324.449646 54.116329,324.772461 54.027336,325.095245 
	C54.027336,325.095245 54.024727,325.022980 53.705395,324.967590 
	C49.962425,331.954926 46.538792,338.997681 43.115158,346.040436 
	C41.406639,349.115234 39.698120,352.190063 37.555431,355.624573 
	C36.414646,355.935760 35.708031,355.887238 35.001419,355.838745 
	C37.982731,347.982635 40.458275,339.887146 44.041691,332.316010 
	C54.149136,310.960785 63.748123,289.274536 75.382729,268.759552 
	C85.709572,250.550507 98.040771,233.408600 110.302765,216.382996 
	C128.480438,191.143509 149.760727,168.524185 172.438217,147.315643 
	C184.269211,136.251007 197.106125,126.259163 209.529282,115.831108 
	C229.309723,99.227348 250.962616,85.233185 273.297363,72.514633 
	C291.233704,62.300739 310.103455,53.635464 328.935791,45.115875 
	C342.521027,38.970036 356.491425,33.446037 370.711945,28.991552 
	C388.930054,23.284849 407.476898,18.529476 426.063660,14.131584 
	C438.846222,11.107044 451.906128,9.186948 464.901489,7.152679 
	C473.778381,5.763102 482.766296,5.096221 491.687592,3.971529 
	C496.317902,3.387799 500.911316,2.511612 505.260681,1.383770 
	C530.020874,1.000000 555.041809,1.000000 580.531372,0.999994 
	C581.431763,1.650466 581.802124,2.813718 582.304565,2.873878 
	C588.977478,3.672828 595.683716,4.197896 602.352600,5.025147 
	C615.342957,6.636564 628.429504,7.790178 641.270996,10.218505 
	C668.726562,15.410368 695.895264,22.021206 722.010132,32.085560 
	C741.242004,39.497295 760.559570,46.996284 778.925354,56.266331 
	C801.192627,67.505592 823.012329,79.842445 844.049805,93.237183 
	C859.585999,103.129234 874.120300,114.826530 888.085876,126.894211 
	C905.094360,141.591263 921.731628,156.855331 937.280945,173.071350 
	C960.650757,197.443207 981.455322,224.029892 998.912781,253.016113 
	C1009.063721,269.870483 1018.931641,286.944855 1027.895996,304.448212 
	C1034.753784,317.838165 1040.005493,332.051514 1045.943481,345.910706 
	C1046.704834,347.687592 1047.296143,349.537354 1047.590088,351.594727 
	C1045.501221,349.213501 1043.437988,346.754364 1042.127930,343.944122 
	C1019.161011,294.674561 986.274963,252.255981 950.998657,211.451538 
	C933.688354,191.428513 913.262268,174.801727 893.109497,157.897690 
	C872.672607,140.755371 851.252686,124.938927 827.450073,112.645836 
	C825.762268,111.774124 823.734863,111.559822 821.865356,111.039841 
	C805.219543,102.357300 788.579041,93.664696 771.916443,85.014442 
	C770.783386,84.426254 769.485168,84.156189 767.965454,83.087799 
	C762.097351,79.997681 756.527588,77.557922 750.957886,75.118172 
	C746.580200,73.414497 742.202576,71.710823 737.228516,69.650314 
	C735.394836,68.813225 734.172607,68.289024 732.917969,67.859093 
	C693.630859,54.396095 654.137268,42.245220 612.505127,37.538895 
	C582.666321,34.165752 552.930786,32.001190 522.947937,33.093929 
	C519.577271,33.404152 516.206665,33.714375 511.954468,34.033493 
	C506.480621,34.297581 501.888275,34.552769 497.295929,34.807953 
	C492.419312,35.769634 487.571167,36.922657 482.660217,37.653564 
	C472.112457,39.223385 461.532379,40.575607 450.073883,41.981873 
	C440.897217,43.006439 432.593323,43.945133 424.343811,45.232357 
	C422.780548,45.476288 421.433075,47.103016 419.986023,48.091705 
	C419.986023,48.091705 419.883453,48.021301 420.008057,48.173092 
	C420.022217,48.664146 419.789459,48.820171 419.434326,48.792953 
	C406.659027,52.308132 393.885162,55.828407 381.105957,59.329353 
	C380.018188,59.627361 378.895111,59.796448 377.015289,60.074928 
	C366.981415,63.192616 357.701996,66.206421 348.477600,69.380211 
	C346.859070,69.937088 345.471436,71.165070 343.977173,72.083130 
	C343.977173,72.083130 343.877716,72.018242 344.023743,72.180748 
	C344.054688,72.740051 343.798065,72.884514 343.399902,72.776642 
	C338.526398,74.528770 333.652924,76.280914 328.124817,78.136200 
	C327.316284,78.531151 327.162384,78.822968 327.008453,79.114777 
	C327.008453,79.114777 327.013641,79.035530 326.706268,78.910217 
	C325.933990,79.226967 325.469086,79.669029 325.004211,80.111099 
	C325.004211,80.111107 325.013672,80.036613 324.705505,79.877823 
	C323.935577,80.183372 323.473755,80.647705 323.011963,81.112038 
	C323.011963,81.112038 323.015839,81.043114 322.706787,80.828217 
	C312.060608,85.335838 301.702515,90.013702 291.413422,94.838692 
	C290.160339,95.426308 289.278198,96.805008 288.224152,97.817101 
	C282.022156,101.163063 275.820129,104.509010 269.019165,108.026237 
	C268.286163,108.499710 268.152100,108.801903 268.018036,109.104088 
	C268.018036,109.104088 268.021271,109.029419 267.694000,108.925018 
	C265.725708,109.601921 264.067291,110.348816 262.446320,111.169662 
	C237.878937,123.610245 215.792252,139.769836 194.513809,157.044617 
	C185.279892,164.541107 176.730804,172.881119 167.870667,180.838013 
	C156.734085,191.916168 145.621231,203.018387 134.437408,214.048645 
	C132.590302,215.870392 130.432480,217.377106 127.899719,219.439056 
	C117.951637,231.378571 108.405128,242.815857 99.159103,254.491089 
	C96.123909,258.323730 93.867935,262.773468 91.255615,266.941010 
z"></path>
<path fill="#EDB6CC" opacity="1.000000" stroke="none" d="
M822.016907,111.364365 
	C823.734863,111.559822 825.762268,111.774124 827.450073,112.645836 
	C851.252686,124.938927 872.672607,140.755371 893.109497,157.897690 
	C913.262268,174.801727 933.688354,191.428513 950.998657,211.451538 
	C986.274963,252.255981 1019.161011,294.674561 1042.127930,343.944122 
	C1043.437988,346.754364 1045.501221,349.213501 1047.522339,351.977631 
	C1051.460938,362.102325 1055.091187,372.085419 1058.721436,382.068542 
	C1058.141479,382.403809 1057.561523,382.739105 1056.981567,383.074402 
	C1007.711670,267.376892 930.441956,176.043793 822.016907,111.364365 
z"></path>
<path fill="#F5D7E1" opacity="1.000000" stroke="none" d="
M523.114075,33.438370 
	C552.930786,32.001190 582.666321,34.165752 612.505127,37.538895 
	C654.137268,42.245220 693.630859,54.396095 732.917969,67.859093 
	C734.172607,68.289024 735.394836,68.813225 736.862488,69.563377 
	C735.670105,69.895668 734.119995,70.361412 732.844421,69.958359 
	C719.416382,65.715515 706.164368,60.853920 692.600769,57.117996 
	C677.291687,52.901299 661.767212,49.411167 646.234985,46.077347 
	C633.631348,43.372105 620.905273,41.197460 608.179504,39.117916 
	C601.596008,38.042103 594.906982,37.269962 588.245178,37.080730 
	C569.208557,36.539986 550.159302,36.449799 531.120911,35.955891 
	C528.490356,35.887650 525.892944,34.538807 523.114075,33.438370 
z"></path>
<path fill="#F5D7E1" opacity="1.000000" stroke="none" d="
M168.242172,180.912231 
	C176.730804,172.881119 185.279892,164.541107 194.513809,157.044617 
	C215.792252,139.769836 237.878937,123.610245 262.446320,111.169662 
	C264.067291,110.348816 265.725708,109.601921 267.731262,108.927467 
	C261.681183,113.238403 255.164673,117.296158 248.872360,121.675980 
	C234.188477,131.896805 219.380646,141.963043 205.065903,152.683273 
	C193.616516,161.257629 182.833542,170.720490 171.705612,179.728256 
	C170.877869,180.398285 169.653595,180.578506 168.242172,180.912231 
z"></path>
<path fill="#F5D6E0" opacity="1.000000" stroke="none" d="
M91.595490,266.953979 
	C93.867935,262.773468 96.123909,258.323730 99.159103,254.491089 
	C108.405128,242.815857 117.951637,231.378571 127.596313,219.647934 
	C129.112762,225.723129 123.848610,228.646011 120.831131,232.539886 
	C112.724007,243.001556 104.285217,253.207321 95.904747,263.454681 
	C94.800735,264.804657 93.269005,265.804810 91.595490,266.953979 
z"></path>
<path fill="#F4D4DB" opacity="1.000000" stroke="none" d="
M288.582428,97.865944 
	C289.278198,96.805008 290.160339,95.426308 291.413422,94.838692 
	C301.702515,90.013702 312.060608,85.335838 322.740112,80.837257 
	C316.542511,84.679016 310.100952,88.492531 303.428955,91.847824 
	C298.762634,94.194481 293.781342,95.914749 288.582428,97.865944 
z"></path>
<path fill="#E6B1CB" opacity="1.000000" stroke="none" d="
M34.663383,356.016296 
	C35.708031,355.887238 36.414646,355.935760 37.476288,355.983765 
	C36.239170,360.595703 34.791019,365.264801 33.004791,369.800781 
	C31.792480,372.879395 30.105799,375.771210 28.035892,378.887787 
	C27.258831,378.998444 27.077137,378.967865 26.895439,378.937286 
	C29.372078,371.356140 31.848717,363.775024 34.663383,356.016296 
z"></path>
<path fill="#F5D5DE" opacity="1.000000" stroke="none" d="
M64.132004,306.927490 
	C69.251160,298.323944 74.732834,289.785828 80.522179,281.129944 
	C78.820023,285.233826 77.199684,289.704559 74.700150,293.613007 
	C71.688339,298.322449 67.929817,302.554352 64.132004,306.927490 
z"></path>
<path fill="#F5D2DB" opacity="1.000000" stroke="none" d="
M344.388367,72.029358 
	C345.471436,71.165070 346.859070,69.937088 348.477600,69.380211 
	C357.701996,66.206421 366.981415,63.192616 376.617188,60.149364 
	C376.789398,60.741379 376.715759,61.703392 376.364929,61.818188 
	C365.859955,65.255424 355.327606,68.608902 344.388367,72.029358 
z"></path>
<path fill="#EFC4D3" opacity="1.000000" stroke="none" d="
M420.402588,48.042065 
	C421.433075,47.103016 422.780548,45.476288 424.343811,45.232357 
	C432.593323,43.945133 440.897217,43.006439 449.647461,42.014908 
	C444.116241,43.398396 438.131775,44.772160 432.118927,46.007835 
	C428.374512,46.777336 424.587219,47.338032 420.402588,48.042065 
z"></path>
<path fill="#F6D1DD" opacity="1.000000" stroke="none" d="
M43.439240,345.912109 
	C46.538792,338.997681 49.962425,331.954926 53.741554,324.967041 
	C50.652470,331.942566 47.207897,338.863190 43.439240,345.912109 
z"></path>
<path fill="#F3C4D1" opacity="1.000000" stroke="none" d="
M750.981201,75.492439 
	C756.527588,77.557922 762.097351,79.997681 767.799072,82.757874 
	C762.288879,80.674454 756.646729,78.270576 750.981201,75.492439 
z"></path>
<path fill="#F6DBE7" opacity="1.000000" stroke="none" d="
M26.558178,379.110107 
	C27.077137,378.967865 27.258831,378.998444 27.713840,379.067932 
	C26.946424,383.454041 25.905695,387.801270 24.864964,392.148468 
	C24.132923,391.973022 23.400885,391.797607 22.668844,391.622162 
	C23.852867,387.509064 25.036892,383.395996 26.558178,379.110107 
z"></path>
<path fill="#F4D7E3" opacity="1.000000" stroke="none" d="
M497.592041,35.081017 
	C501.888275,34.552769 506.480621,34.297581 511.533142,34.097923 
	C510.180573,36.606026 508.250793,37.646019 505.005005,36.172703 
	C502.935303,35.233250 500.280579,35.582596 497.592041,35.081017 
z"></path>
<path fill="#F4D4DB" opacity="1.000000" stroke="none" d="
M323.332947,81.063828 
	C323.473755,80.647705 323.935577,80.183372 324.742645,79.883423 
	C324.609924,80.370407 324.131927,80.693016 323.332947,81.063828 
z"></path>
<path fill="#F4D4DB" opacity="1.000000" stroke="none" d="
M325.334320,80.066101 
	C325.469086,79.669029 325.933990,79.226967 326.745819,78.913651 
	C326.616638,79.368637 326.140533,79.694878 325.334320,80.066101 
z"></path>
<path fill="#F5D2DB" opacity="1.000000" stroke="none" d="
M343.573151,72.696358 
	C343.798065,72.884514 344.054688,72.740051 344.053772,72.129532 
	C344.012604,72.186974 343.948792,72.420403 343.573151,72.696358 
z"></path>
<path fill="#F4D4DB" opacity="1.000000" stroke="none" d="
M327.245361,79.033577 
	C327.162384,78.822968 327.316284,78.531151 327.735107,78.191681 
	C327.981049,78.511787 327.808472,78.781235 327.245361,79.033577 
z"></path>
<path fill="#F5D7E1" opacity="1.000000" stroke="none" d="
M268.256439,109.040588 
	C268.152100,108.801903 268.286163,108.499710 268.704651,108.189461 
	C268.992004,108.550713 268.827271,108.815948 268.256439,109.040588 
z"></path>
<path fill="#F6D1DD" opacity="1.000000" stroke="none" d="
M54.301453,325.012024 
	C54.116329,324.772461 54.205318,324.449646 54.562050,324.029419 
	C54.745049,324.264221 54.660309,324.596497 54.301453,325.012024 
z"></path>
<path fill="#EFC4D3" opacity="1.000000" stroke="none" d="
M419.602234,48.703850 
	C419.789459,48.820171 420.022217,48.664146 420.040955,48.120293 
	C420.034424,48.185757 419.974731,48.418770 419.602234,48.703850 
z"></path>
<path fill="#F7F2F4" opacity="1.000000" stroke="none" d="
M55.102482,555.213867 
	C58.090004,517.397400 64.955635,480.791168 76.095718,445.010925 
	C104.019524,355.323853 154.576050,280.442169 225.901443,219.868790 
	C289.743103,165.650986 362.887665,129.196259 444.875031,111.231018 
	C480.747253,103.370613 517.169373,100.198860 553.906494,101.117912 
	C636.639282,103.187637 713.466003,126.324837 784.815063,167.514740 
	C906.791992,237.932129 983.893250,342.369263 1017.677795,478.813660 
	C1027.881470,520.022705 1031.736084,562.102966 1029.778198,604.524231 
	C1024.781982,712.769287 989.391846,809.718384 919.863342,893.306702 
	C851.269165,975.771912 764.601135,1030.410156 660.953003,1057.896240 
	C615.504395,1069.948608 569.148010,1074.911865 522.165710,1072.790161 
	C438.198761,1068.998413 360.634369,1044.119141 288.894623,1000.715759 
	C207.978806,951.760742 146.136429,884.993408 103.732956,800.480103 
	C82.497765,758.156738 68.212051,713.472656 60.845856,666.610718 
	C56.158375,636.790100 53.646980,606.829834 54.095322,576.643311 
	C54.199142,569.653198 54.739059,562.669617 55.102482,555.213867 
M995.068115,470.567963 
	C994.765320,469.617767 994.417114,468.679382 994.166199,467.715668 
	C982.988770,424.782135 965.324219,384.494568 942.883057,346.419525 
	C918.083313,304.342712 886.699829,267.739136 849.205627,236.155121 
	C794.712158,190.251434 733.881897,156.499557 665.161560,137.458466 
	C634.076538,128.845383 602.618530,121.623726 570.136597,121.000854 
	C535.701843,120.340530 501.294952,119.651108 467.210510,126.784744 
	C441.049835,132.259979 414.636688,136.405655 389.789734,146.964813 
	C363.509827,158.132950 336.257904,167.150909 312.113831,182.939621 
	C301.248627,190.044769 290.416809,197.220840 279.303314,203.922729 
	C244.640656,224.825729 216.028061,252.635574 189.740311,282.909088 
	C176.334717,298.347198 163.473831,314.405670 151.831757,331.199371 
	C120.911415,375.802032 100.126381,425.162445 87.048721,477.665436 
	C82.448029,496.135895 80.144028,515.185120 76.947304,533.996521 
	C73.903091,551.910461 72.032791,569.930664 72.965019,588.145386 
	C73.245941,593.634338 73.648750,599.118164 73.853477,604.609680 
	C74.746780,628.572144 76.977234,652.393738 81.818611,675.901001 
	C97.103951,750.118896 127.518677,817.336609 175.206482,876.457092 
	C182.068634,884.964478 189.605789,892.927490 197.355606,901.739380 
	C198.559647,898.743713 199.348816,896.936951 200.019531,895.087097 
	C206.735153,876.566528 214.859085,858.787720 226.670181,842.845947 
	C273.061340,780.230469 319.148102,717.387634 365.821960,654.983765 
	C404.317413,603.514709 443.388214,552.474487 482.372375,501.372650 
	C533.278687,434.642700 584.242859,367.956207 635.418274,301.432709 
	C650.641052,281.644531 665.449463,261.319336 682.590637,243.275925 
	C708.928955,215.551270 742.161926,205.046265 779.985352,212.682022 
	C822.130920,221.190308 854.946716,258.725006 859.072510,301.638397 
	C859.686646,308.026794 859.380798,315.201355 862.234985,320.554230 
	C873.752869,342.155914 873.775208,365.333923 873.337708,388.664246 
	C873.210388,395.450958 872.471802,402.300079 871.242859,408.978851 
	C866.977783,432.157196 855.997620,452.470215 843.291504,471.907898 
	C827.536926,496.009094 810.492065,519.326050 795.798645,544.048035 
	C773.514404,581.541809 771.700500,620.380676 793.716736,658.974915 
	C806.902527,682.089417 821.251831,704.545593 834.225647,727.773865 
	C846.629578,749.981628 855.503723,773.762756 857.674438,799.269287 
	C860.044067,827.112671 855.235229,854.197693 842.782654,879.241882 
	C815.485962,934.139954 770.115784,963.329285 709.716736,969.533569 
	C691.425110,971.412415 673.494690,969.254211 655.752930,962.884094 
	C632.415588,954.504883 610.402893,944.645386 593.485352,925.800354 
	C590.452087,922.421570 587.999817,923.648499 586.050415,927.100281 
	C582.654663,933.113159 577.327454,936.298645 570.614502,936.642151 
	C565.992859,936.878662 561.320312,935.893311 556.674988,935.935974 
	C542.680725,936.064514 528.687927,936.693420 514.695862,936.655884 
	C450.373993,936.483459 386.051971,936.226257 321.732086,935.727722 
	C316.733246,935.688965 311.602112,933.979187 306.796265,932.293823 
	C300.071838,929.935730 293.711060,926.539246 286.984253,924.189575 
	C278.199646,921.121155 269.843842,917.705200 265.006165,908.616943 
	C250.356674,914.140686 235.968170,919.566040 220.245178,925.494568 
	C226.126663,930.428406 231.183868,934.630981 236.198471,938.883728 
	C274.190216,971.103760 316.522339,996.456543 362.040588,1016.237244 
	C397.303833,1031.561401 433.928131,1042.916504 472.417725,1047.281128 
	C490.572510,1049.339600 508.626587,1052.541626 526.825195,1053.899902 
	C555.711548,1056.055664 584.431152,1052.210449 612.761658,1047.421753 
	C636.732910,1043.369995 660.681152,1037.795044 683.791748,1030.285278 
	C771.398926,1001.817444 845.029663,952.212952 903.541077,880.800598 
	C926.477966,852.806213 947.514099,823.361938 963.494385,790.790466 
	C981.639648,753.806458 994.540466,715.064148 1001.479004,674.226196 
	C1006.083496,647.125549 1010.153015,620.075928 1011.034424,592.593933 
	C1011.832581,567.707214 1009.658142,543.054504 1004.875671,518.639771 
	C1001.784058,502.856445 998.437561,487.123047 995.068115,470.567963 
M837.143311,790.324036 
	C834.254517,770.128784 826.051331,751.780701 816.243896,734.288696 
	C806.282471,716.522156 794.989075,699.500916 784.230713,682.183289 
	C771.953369,662.420593 763.380920,641.482605 760.600403,618.044861 
	C757.634888,593.047791 763.031067,569.731140 773.168884,547.469971 
	C783.933899,523.831543 799.565247,502.992767 814.199463,481.650269 
	C825.669006,464.923035 836.595154,447.970642 844.539795,429.161926 
	C850.398376,415.291748 854.974487,401.161194 855.703552,386.129517 
	C856.622253,367.185669 853.645508,348.837158 846.256592,331.163330 
	C843.553101,324.696838 841.287720,317.565460 841.017212,310.651520 
	C840.106934,287.389954 832.350769,267.318481 814.612305,252.107300 
	C798.083740,237.933640 779.114075,229.956009 756.554749,229.973709 
	C730.163025,229.994431 709.679260,241.545502 693.073669,260.287476 
	C678.785645,276.413727 666.085999,293.963715 652.934387,311.076599 
	C631.148682,339.424469 609.623352,367.972290 587.877991,396.351440 
	C566.138000,424.723541 544.205688,452.948303 522.464050,481.319092 
	C502.839386,506.927307 483.323975,532.619446 463.823334,558.322327 
	C441.413757,587.859375 418.998901,617.392883 396.721161,647.029236 
	C367.147858,686.371094 337.667236,725.782776 308.222473,765.220947 
	C294.094330,784.144043 280.345734,803.353333 266.052673,822.149719 
	C249.858719,843.445984 233.217438,864.408386 223.016159,889.508484 
	C220.940475,894.615723 218.986740,899.772400 216.596100,905.878601 
	C221.095444,904.691345 224.369324,903.861755 227.623886,902.962402 
	C237.122040,900.337463 246.419128,897.171936 253.835983,890.341675 
	C264.602570,880.426514 275.139679,870.262634 285.867767,860.305176 
	C299.738342,847.431030 313.689148,834.643127 327.625732,821.840210 
	C358.989258,793.028015 390.409149,764.277039 421.715607,735.403076 
	C435.045868,723.108582 448.075592,710.488647 461.375671,698.160950 
	C476.251678,684.372620 491.334290,670.807373 506.227325,657.037231 
	C525.484619,639.231873 544.691956,621.371887 563.831421,603.440125 
	C586.405701,582.290344 608.898499,561.053650 631.400024,539.826355 
	C648.599792,523.600586 665.695007,507.263367 682.949707,491.096375 
	C708.792297,466.882904 734.750732,442.793091 760.626282,418.614807 
	C772.305237,407.701904 783.820862,396.612885 795.577576,385.785095 
	C800.489014,381.261688 805.834778,377.209869 811.522583,372.496582 
	C812.109131,375.855530 813.104309,378.208252 812.805786,380.383423 
	C810.705444,395.682312 808.063843,410.936279 799.495361,424.203003 
	C781.659851,451.818207 763.234009,479.056793 745.675049,506.844574 
	C729.396423,532.606018 717.308533,560.044800 715.754272,591.170471 
	C715.006348,606.148132 714.563538,621.063416 717.677856,635.867554 
	C722.941406,660.888123 734.713318,683.080444 747.768555,704.652344 
	C757.821960,721.264099 769.098022,737.173401 778.478027,754.142578 
	C785.144348,766.202515 791.686768,778.730896 792.972717,792.988647 
	C793.510437,798.950928 793.888550,804.929993 794.542908,810.879028 
	C796.675842,830.270691 791.154297,848.232544 780.768555,863.763977 
	C772.060547,876.786499 761.581665,888.865723 746.710083,896.566589 
	C716.568542,912.174500 686.647949,913.614075 656.968750,896.807739 
	C630.261230,881.684204 613.438843,857.479797 618.855530,824.320068 
	C622.836670,799.948669 645.760498,782.911865 670.211060,786.548218 
	C674.936951,787.251038 679.880615,787.398804 684.623108,786.880737 
	C692.963806,785.969849 699.293091,781.847595 702.093811,773.449829 
	C705.994202,761.755249 697.543396,747.386108 684.334900,745.448853 
	C673.908325,743.919617 662.903809,742.803772 652.616516,744.425537 
	C586.803955,754.800415 567.376282,812.477905 576.618225,856.752686 
	C583.225891,888.407471 602.320007,911.625977 628.037354,929.752563 
	C648.395752,944.102051 671.365479,950.987366 696.376465,950.731262 
	C703.039978,950.663086 709.862366,951.640198 716.339661,950.537964 
	C736.710510,947.071716 756.280151,940.984131 773.915833,929.768433 
	C802.833069,911.378052 821.883118,885.637695 832.353271,853.020935 
	C838.891113,832.654358 841.132996,812.235107 837.143311,790.324036 
M655.679504,872.875793 
	C674.261780,887.339905 694.940979,892.253601 718.075745,887.099060 
	C750.648438,879.841675 776.752319,848.236816 775.897278,814.844360 
	C775.428955,796.553589 771.861816,778.605286 761.592163,762.625671 
	C749.453125,743.737427 737.173889,724.901367 725.979126,705.453430 
	C711.416443,680.154419 699.341675,653.822144 696.829163,624.027405 
	C693.619446,585.965149 699.076172,549.527100 717.953796,516.060486 
	C729.538086,495.523590 742.950989,476.019775 755.477539,456.011261 
	C757.315674,453.075256 758.791443,449.912354 760.434875,446.854431 
	C759.903809,446.462097 759.372742,446.069733 758.841614,445.677399 
	C754.256104,449.885712 749.621033,454.041473 745.092896,458.310699 
	C707.151001,494.083221 669.352173,530.008484 631.273560,565.634705 
	C563.269897,629.258667 495.127686,692.734558 426.985596,756.210266 
	C405.654968,776.080078 384.051544,795.657288 362.742401,815.549866 
	C351.432770,826.107544 340.465637,837.033081 329.405182,847.855164 
	C328.221588,849.013245 327.448669,850.591003 325.672882,853.140198 
	C329.179840,853.140198 331.273285,853.140259 333.366730,853.140198 
	C382.520752,853.138794 431.674896,853.066956 480.828705,853.165100 
	C505.743744,853.214844 530.658203,853.571045 555.960266,853.792114 
	C555.960266,850.016907 556.462830,844.993530 555.865784,840.104431 
	C554.089722,825.560913 556.623169,811.678162 561.143433,797.950317 
	C573.765015,759.619141 601.085815,736.679932 639.095581,727.235535 
	C653.390137,723.683655 669.151794,725.690369 684.239136,725.817749 
	C692.065125,725.883789 699.109314,729.427063 705.162903,734.347595 
	C718.050110,744.822510 724.006165,758.111877 720.852051,774.871094 
	C717.967834,790.196472 708.396606,799.319397 694.007202,804.125977 
	C685.251953,807.050537 676.476807,807.356628 667.475220,805.400513 
	C655.749817,802.852600 642.759216,810.333557 638.751160,821.683838 
	C632.530945,839.298462 638.657166,858.289490 655.679504,872.875793 
M398.500000,917.987244 
	C455.552765,917.987244 512.605530,917.987244 570.669006,917.987244 
	C569.214966,915.644165 568.425293,914.436768 567.699524,913.192017 
	C561.530701,902.612122 554.920349,892.256958 549.356445,881.367371 
	C544.914124,872.672852 545.387756,872.297424 535.724792,872.312805 
	C470.230988,872.416687 404.737183,872.530701 339.243378,872.641235 
	C312.894379,872.685669 319.664307,871.286682 301.689301,886.079529 
	C295.492371,891.179382 289.599152,896.648315 283.085022,902.372375 
	C291.124939,905.708679 298.321075,908.284607 305.141357,911.627319 
	C313.996704,915.967346 323.206329,918.025085 333.002838,918.003174 
	C354.501801,917.955200 376.000946,917.987610 398.500000,917.987244 
z"></path>
<path fill="#F58233" opacity="1.000000" stroke="none" d="
M995.136719,470.967651 
	C998.437561,487.123047 1001.784058,502.856445 1004.875671,518.639771 
	C1009.658142,543.054504 1011.832581,567.707214 1011.034424,592.593933 
	C1010.153015,620.075928 1006.083496,647.125549 1001.479004,674.226196 
	C994.540466,715.064148 981.639648,753.806458 963.494385,790.790466 
	C947.514099,823.361938 926.477966,852.806213 903.541077,880.800598 
	C845.029663,952.212952 771.398926,1001.817444 683.791748,1030.285278 
	C660.681152,1037.795044 636.732910,1043.369995 612.761658,1047.421753 
	C584.431152,1052.210449 555.711548,1056.055664 526.825195,1053.899902 
	C508.626587,1052.541626 490.572510,1049.339600 472.417725,1047.281128 
	C433.928131,1042.916504 397.303833,1031.561401 362.040588,1016.237244 
	C316.522339,996.456543 274.190216,971.103760 236.198471,938.883728 
	C231.183868,934.630981 226.126663,930.428406 220.245178,925.494568 
	C235.968170,919.566040 250.356674,914.140686 265.006165,908.616943 
	C269.843842,917.705200 278.199646,921.121155 286.984253,924.189575 
	C293.711060,926.539246 300.071838,929.935730 306.796265,932.293823 
	C311.602112,933.979187 316.733246,935.688965 321.732086,935.727722 
	C386.051971,936.226257 450.373993,936.483459 514.695862,936.655884 
	C528.687927,936.693420 542.680725,936.064514 556.674988,935.935974 
	C561.320312,935.893311 565.992859,936.878662 570.614502,936.642151 
	C577.327454,936.298645 582.654663,933.113159 586.050415,927.100281 
	C587.999817,923.648499 590.452087,922.421570 593.485352,925.800354 
	C610.402893,944.645386 632.415588,954.504883 655.752930,962.884094 
	C673.494690,969.254211 691.425110,971.412415 709.716736,969.533569 
	C770.115784,963.329285 815.485962,934.139954 842.782654,879.241882 
	C855.235229,854.197693 860.044067,827.112671 857.674438,799.269287 
	C855.503723,773.762756 846.629578,749.981628 834.225647,727.773865 
	C821.251831,704.545593 806.902527,682.089417 793.716736,658.974915 
	C771.700500,620.380676 773.514404,581.541809 795.798645,544.048035 
	C810.492065,519.326050 827.536926,496.009094 843.291504,471.907898 
	C855.997620,452.470215 866.977783,432.157196 871.242859,408.978851 
	C872.471802,402.300079 873.210388,395.450958 873.337708,388.664246 
	C873.775208,365.333923 873.752869,342.155914 862.234985,320.554230 
	C859.380798,315.201355 859.686646,308.026794 859.072510,301.638397 
	C854.946716,258.725006 822.130920,221.190308 779.985352,212.682022 
	C742.161926,205.046265 708.928955,215.551270 682.590637,243.275925 
	C665.449463,261.319336 650.641052,281.644531 635.418274,301.432709 
	C584.242859,367.956207 533.278687,434.642700 482.372375,501.372650 
	C443.388214,552.474487 404.317413,603.514709 365.821960,654.983765 
	C319.148102,717.387634 273.061340,780.230469 226.670181,842.845947 
	C214.859085,858.787720 206.735153,876.566528 200.019531,895.087097 
	C199.348816,896.936951 198.559647,898.743713 197.355606,901.739380 
	C189.605789,892.927490 182.068634,884.964478 175.206482,876.457092 
	C127.518677,817.336609 97.103951,750.118896 81.818611,675.901001 
	C76.977234,652.393738 74.746780,628.572144 73.853477,604.609680 
	C73.648750,599.118164 73.245941,593.634338 72.965019,588.145386 
	C72.032791,569.930664 73.903091,551.910461 76.947304,533.996521 
	C80.144028,515.185120 82.448029,496.135895 87.048721,477.665436 
	C100.126381,425.162445 120.911415,375.802032 151.831757,331.199371 
	C163.473831,314.405670 176.334717,298.347198 189.740311,282.909088 
	C216.028061,252.635574 244.640656,224.825729 279.303314,203.922729 
	C290.416809,197.220840 301.248627,190.044769 312.113831,182.939621 
	C336.257904,167.150909 363.509827,158.132950 389.789734,146.964813 
	C414.636688,136.405655 441.049835,132.259979 467.210510,126.784744 
	C501.294952,119.651108 535.701843,120.340530 570.136597,121.000854 
	C602.618530,121.623726 634.076538,128.845383 665.161560,137.458466 
	C733.881897,156.499557 794.712158,190.251434 849.205627,236.155121 
	C886.699829,267.739136 918.083313,304.342712 942.883057,346.419525 
	C965.324219,384.494568 982.988770,424.782135 994.166199,467.715668 
	C994.417114,468.679382 994.765320,469.617767 995.136719,470.967651 
z"></path>
<path fill="#3A4347" opacity="1.000000" stroke="none" d="
M837.234375,790.752441 
	C841.132996,812.235107 838.891113,832.654358 832.353271,853.020935 
	C821.883118,885.637695 802.833069,911.378052 773.915833,929.768433 
	C756.280151,940.984131 736.710510,947.071716 716.339661,950.537964 
	C709.862366,951.640198 703.039978,950.663086 696.376465,950.731262 
	C671.365479,950.987366 648.395752,944.102051 628.037354,929.752563 
	C602.320007,911.625977 583.225891,888.407471 576.618225,856.752686 
	C567.376282,812.477905 586.803955,754.800415 652.616516,744.425537 
	C662.903809,742.803772 673.908325,743.919617 684.334900,745.448853 
	C697.543396,747.386108 705.994202,761.755249 702.093811,773.449829 
	C699.293091,781.847595 692.963806,785.969849 684.623108,786.880737 
	C679.880615,787.398804 674.936951,787.251038 670.211060,786.548218 
	C645.760498,782.911865 622.836670,799.948669 618.855530,824.320068 
	C613.438843,857.479797 630.261230,881.684204 656.968750,896.807739 
	C686.647949,913.614075 716.568542,912.174500 746.710083,896.566589 
	C761.581665,888.865723 772.060547,876.786499 780.768555,863.763977 
	C791.154297,848.232544 796.675842,830.270691 794.542908,810.879028 
	C793.888550,804.929993 793.510437,798.950928 792.972717,792.988647 
	C791.686768,778.730896 785.144348,766.202515 778.478027,754.142578 
	C769.098022,737.173401 757.821960,721.264099 747.768555,704.652344 
	C734.713318,683.080444 722.941406,660.888123 717.677856,635.867554 
	C714.563538,621.063416 715.006348,606.148132 715.754272,591.170471 
	C717.308533,560.044800 729.396423,532.606018 745.675049,506.844574 
	C763.234009,479.056793 781.659851,451.818207 799.495361,424.203003 
	C808.063843,410.936279 810.705444,395.682312 812.805786,380.383423 
	C813.104309,378.208252 812.109131,375.855530 811.522583,372.496582 
	C805.834778,377.209869 800.489014,381.261688 795.577576,385.785095 
	C783.820862,396.612885 772.305237,407.701904 760.626282,418.614807 
	C734.750732,442.793091 708.792297,466.882904 682.949707,491.096375 
	C665.695007,507.263367 648.599792,523.600586 631.400024,539.826355 
	C608.898499,561.053650 586.405701,582.290344 563.831421,603.440125 
	C544.691956,621.371887 525.484619,639.231873 506.227325,657.037231 
	C491.334290,670.807373 476.251678,684.372620 461.375671,698.160950 
	C448.075592,710.488647 435.045868,723.108582 421.715607,735.403076 
	C390.409149,764.277039 358.989258,793.028015 327.625732,821.840210 
	C313.689148,834.643127 299.738342,847.431030 285.867767,860.305176 
	C275.139679,870.262634 264.602570,880.426514 253.835983,890.341675 
	C246.419128,897.171936 237.122040,900.337463 227.623886,902.962402 
	C224.369324,903.861755 221.095444,904.691345 216.596100,905.878601 
	C218.986740,899.772400 220.940475,894.615723 223.016159,889.508484 
	C233.217438,864.408386 249.858719,843.445984 266.052673,822.149719 
	C280.345734,803.353333 294.094330,784.144043 308.222473,765.220947 
	C337.667236,725.782776 367.147858,686.371094 396.721161,647.029236 
	C418.998901,617.392883 441.413757,587.859375 463.823334,558.322327 
	C483.323975,532.619446 502.839386,506.927307 522.464050,481.319092 
	C544.205688,452.948303 566.138000,424.723541 587.877991,396.351440 
	C609.623352,367.972290 631.148682,339.424469 652.934387,311.076599 
	C666.085999,293.963715 678.785645,276.413727 693.073669,260.287476 
	C709.679260,241.545502 730.163025,229.994431 756.554749,229.973709 
	C779.114075,229.956009 798.083740,237.933640 814.612305,252.107300 
	C832.350769,267.318481 840.106934,287.389954 841.017212,310.651520 
	C841.287720,317.565460 843.553101,324.696838 846.256592,331.163330 
	C853.645508,348.837158 856.622253,367.185669 855.703552,386.129517 
	C854.974487,401.161194 850.398376,415.291748 844.539795,429.161926 
	C836.595154,447.970642 825.669006,464.923035 814.199463,481.650269 
	C799.565247,502.992767 783.933899,523.831543 773.168884,547.469971 
	C763.031067,569.731140 757.634888,593.047791 760.600403,618.044861 
	C763.380920,641.482605 771.953369,662.420593 784.230713,682.183289 
	C794.989075,699.500916 806.282471,716.522156 816.243896,734.288696 
	C826.051331,751.780701 834.254517,770.128784 837.234375,790.752441 
M721.959595,392.463226 
	C739.474243,376.096863 756.591248,359.278259 776.637268,345.858765 
	C780.198547,343.474731 783.357117,340.393005 786.379211,337.316772 
	C799.387390,324.075470 801.679504,307.602570 792.901428,291.702240 
	C784.975220,277.344849 765.990906,269.070496 749.716797,272.538513 
	C736.268433,275.404419 727.300171,284.108582 719.418823,294.553925 
	C649.076843,387.779388 578.703430,480.981140 508.333771,574.185791 
	C496.004730,590.515503 483.629974,606.810669 471.340424,623.169922 
	C470.168243,624.730347 469.454773,626.635315 468.528320,628.380310 
	C468.906738,628.643066 469.285156,628.905823 469.663544,629.168518 
	C553.593201,550.430664 637.522766,471.692780 721.959595,392.463226 
z"></path>
<path fill="#F58234" opacity="1.000000" stroke="none" d="
M655.399963,872.652100 
	C638.657166,858.289490 632.530945,839.298462 638.751160,821.683838 
	C642.759216,810.333557 655.749817,802.852600 667.475220,805.400513 
	C676.476807,807.356628 685.251953,807.050537 694.007202,804.125977 
	C708.396606,799.319397 717.967834,790.196472 720.852051,774.871094 
	C724.006165,758.111877 718.050110,744.822510 705.162903,734.347595 
	C699.109314,729.427063 692.065125,725.883789 684.239136,725.817749 
	C669.151794,725.690369 653.390137,723.683655 639.095581,727.235535 
	C601.085815,736.679932 573.765015,759.619141 561.143433,797.950317 
	C556.623169,811.678162 554.089722,825.560913 555.865784,840.104431 
	C556.462830,844.993530 555.960266,850.016907 555.960266,853.792114 
	C530.658203,853.571045 505.743744,853.214844 480.828705,853.165100 
	C431.674896,853.066956 382.520752,853.138794 333.366730,853.140198 
	C331.273285,853.140259 329.179840,853.140198 325.672882,853.140198 
	C327.448669,850.591003 328.221588,849.013245 329.405182,847.855164 
	C340.465637,837.033081 351.432770,826.107544 362.742401,815.549866 
	C384.051544,795.657288 405.654968,776.080078 426.985596,756.210266 
	C495.127686,692.734558 563.269897,629.258667 631.273560,565.634705 
	C669.352173,530.008484 707.151001,494.083221 745.092896,458.310699 
	C749.621033,454.041473 754.256104,449.885712 758.841614,445.677399 
	C759.372742,446.069733 759.903809,446.462097 760.434875,446.854431 
	C758.791443,449.912354 757.315674,453.075256 755.477539,456.011261 
	C742.950989,476.019775 729.538086,495.523590 717.953796,516.060486 
	C699.076172,549.527100 693.619446,585.965149 696.829163,624.027405 
	C699.341675,653.822144 711.416443,680.154419 725.979126,705.453430 
	C737.173889,724.901367 749.453125,743.737427 761.592163,762.625671 
	C771.861816,778.605286 775.428955,796.553589 775.897278,814.844360 
	C776.752319,848.236816 750.648438,879.841675 718.075745,887.099060 
	C694.940979,892.253601 674.261780,887.339905 655.399963,872.652100 
z"></path>
<path fill="#394247" opacity="1.000000" stroke="none" d="
M398.000000,917.987244 
	C376.000946,917.987610 354.501801,917.955200 333.002838,918.003174 
	C323.206329,918.025085 313.996704,915.967346 305.141357,911.627319 
	C298.321075,908.284607 291.124939,905.708679 283.085022,902.372375 
	C289.599152,896.648315 295.492371,891.179382 301.689301,886.079529 
	C319.664307,871.286682 312.894379,872.685669 339.243378,872.641235 
	C404.737183,872.530701 470.230988,872.416687 535.724792,872.312805 
	C545.387756,872.297424 544.914124,872.672852 549.356445,881.367371 
	C554.920349,892.256958 561.530701,902.612122 567.699524,913.192017 
	C568.425293,914.436768 569.214966,915.644165 570.669006,917.987244 
	C512.605530,917.987244 455.552765,917.987244 398.000000,917.987244 
z"></path>
<path fill="#F7F6F5" opacity="1.000000" stroke="none" d="
M721.705994,392.709045 
	C637.522766,471.692780 553.593201,550.430664 469.663544,629.168518 
	C469.285156,628.905823 468.906738,628.643066 468.528320,628.380310 
	C469.454773,626.635315 470.168243,624.730347 471.340424,623.169922 
	C483.629974,606.810669 496.004730,590.515503 508.333771,574.185791 
	C578.703430,480.981140 649.076843,387.779388 719.418823,294.553925 
	C727.300171,284.108582 736.268433,275.404419 749.716797,272.538513 
	C765.990906,269.070496 784.975220,277.344849 792.901428,291.702240 
	C801.679504,307.602570 799.387390,324.075470 786.379211,337.316772 
	C783.357117,340.393005 780.198547,343.474731 776.637268,345.858765 
	C756.591248,359.278259 739.474243,376.096863 721.705994,392.709045 
M683.145691,403.639984 
	C688.343994,398.718628 693.486877,393.737122 698.750977,388.887177 
	C714.656372,374.233154 730.416077,359.411896 746.624573,345.099762 
	C754.706726,337.963196 763.884155,332.078186 772.116089,325.096375 
	C778.393127,319.772522 781.049377,312.721924 778.087830,304.482483 
	C774.974731,295.821259 767.476379,290.423828 758.456360,290.010406 
	C747.655029,289.515320 740.839111,295.795227 735.137024,303.815704 
	C726.755493,315.605011 718.824829,327.729187 710.119690,339.271454 
	C680.778137,378.175659 651.169373,416.878204 621.714172,455.696838 
	C620.475159,457.329742 619.749390,459.352112 618.784485,461.193024 
	C619.319885,461.564728 619.855225,461.936432 620.390625,462.308105 
	C641.135071,442.913025 661.879517,423.517914 683.145691,403.639984 
z"></path>
<path fill="#F58335" opacity="1.000000" stroke="none" d="
M682.884827,403.881409 
	C661.879517,423.517914 641.135071,442.913025 620.390625,462.308105 
	C619.855225,461.936432 619.319885,461.564728 618.784485,461.193024 
	C619.749390,459.352112 620.475159,457.329742 621.714172,455.696838 
	C651.169373,416.878204 680.778137,378.175659 710.119690,339.271454 
	C718.824829,327.729187 726.755493,315.605011 735.137024,303.815704 
	C740.839111,295.795227 747.655029,289.515320 758.456360,290.010406 
	C767.476379,290.423828 774.974731,295.821259 778.087830,304.482483 
	C781.049377,312.721924 778.393127,319.772522 772.116089,325.096375 
	C763.884155,332.078186 754.706726,337.963196 746.624573,345.099762 
	C730.416077,359.411896 714.656372,374.233154 698.750977,388.887177 
	C693.486877,393.737122 688.343994,398.718628 682.884827,403.881409 
z"></path>
</svg><style>@media (prefers-color-scheme: light) { :root { filter: none; } }
</style></svg>